<?xml version="1.0" encoding="UTF-8" standalone="no"?>
<!-- Created with Inkscape (http://www.inkscape.org/) -->

<svg
   xmlns:dc="http://purl.org/dc/elements/1.1/"
   xmlns:cc="http://creativecommons.org/ns#"
   xmlns:rdf="http://www.w3.org/1999/02/22-rdf-syntax-ns#"
   xmlns:svg="http://www.w3.org/2000/svg"
   xmlns="http://www.w3.org/2000/svg"
   xmlns:xlink="http://www.w3.org/1999/xlink"
   xmlns:sodipodi="http://sodipodi.sourceforge.net/DTD/sodipodi-0.dtd"
   xmlns:inkscape="http://www.inkscape.org/namespaces/inkscape"
   width="174.03445mm"
   height="21.320499mm"
   viewBox="0 0 616.65751 75.545074"
   id="svg2"
   version="1.1"
   inkscape:version="0.91 r13725"
   sodipodi:docname="title.svg">
  <defs
     id="defs4">
    <path
       d="m 0,0.06867692 233.77044,0 L 233.77044,36 0,36 0,0.06867692 Z"
       id="path-1"
       inkscape:connector-curvature="0" />
    <path
       d="m 0,0.06867692 233.77044,0 L 233.77044,36 0,36 0,0.06867692 Z"
       id="path-3"
       inkscape:connector-curvature="0" />
    <path
       d="m 0,0.06867692 233.77044,0 L 233.77044,36 0,36 0,0.06867692 Z"
       id="path-5"
       inkscape:connector-curvature="0" />
    <path
       d="m 0,0.06867692 233.77044,0 L 233.77044,36 0,36 0,0.06867692 Z"
       id="path-7"
       inkscape:connector-curvature="0" />
  </defs>
  <sodipodi:namedview
     id="base"
     pagecolor="#ffffff"
     bordercolor="#666666"
     borderopacity="1.0"
     inkscape:pageopacity="0.0"
     inkscape:pageshadow="2"
     inkscape:zoom="0.98994949"
     inkscape:cx="472.75478"
     inkscape:cy="103.7829"
     inkscape:document-units="px"
     inkscape:current-layer="layer1"
     showgrid="false"
     fit-margin-top="0"
     fit-margin-left="0"
     fit-margin-right="0"
     fit-margin-bottom="0"
     inkscape:window-width="1276"
     inkscape:window-height="755"
     inkscape:window-x="0"
     inkscape:window-y="1"
     inkscape:window-maximized="1" />
  <metadata
     id="metadata7">
    <rdf:RDF>
      <cc:Work
         rdf:about="">
        <dc:format>image/svg+xml</dc:format>
        <dc:type
           rdf:resource="http://purl.org/dc/dcmitype/StillImage" />
        <dc:title></dc:title>
      </cc:Work>
    </rdf:RDF>
  </metadata>
  <g
     inkscape:label="Layer 1"
     inkscape:groupmode="layer"
     id="layer1"
     transform="translate(41.074358,-725.49059)">
    <g
       id="g4227"
       transform="matrix(0.7,0,0,0.7,-12.322307,240.3107)">
      <g
         style="fill:none;fill-rule:evenodd;stroke:none;stroke-width:1"
         transform="matrix(0.25199432,0,0,0.25199432,-41.249949,693.05428)"
         id="Welcome-9">
        <g
           style="fill:#ffcc66"
           id="Desktop-HD-Home-9"
           transform="translate(-503,-297)">
          <g
             id="l-5"
             transform="translate(173,100)">
            <g
               id="LOGO"
               transform="matrix(0.91354546,0.40673664,-0.40673664,0.91354546,435.78951,128.29949)">
              <path
                 inkscape:connector-curvature="0"
                 d="m 22.07277,214.24686 c 0,-47.42862 17.14364,-90.83957 45.563506,-124.409327 L 52.44771,74.646772 C 20.179136,112.12887 0.66351755,160.91353 0.66351755,214.24686 c 0,53.3443 19.51561845,102.12238 51.78419245,139.5957 L 67.636276,338.65838 C 39.21641,305.08423 22.07277,261.67547 22.07277,214.24686"
                 id="Fill-1-4" />
              <path
                 inkscape:connector-curvature="0"
                 d="m 214.75056,21.571267 c 47.42861,0 90.83956,17.145833 124.41371,45.559117 L 354.35284,51.941818 C 316.86854,19.673244 268.09047,0.16201411 214.75056,0.16201411 161.41284,0.16201411 112.63915,19.673244 75.15047,51.941818 L 90.345619,67.130384 C 123.91319,38.7171 167.32414,21.571267 214.75056,21.571267"
                 id="Fill-3" />
              <path
                 inkscape:connector-curvature="0"
                 d="m 407.43054,214.24686 c 0,47.42861 -17.14364,90.83737 -45.56351,124.41152 l 15.19076,15.18418 c 32.26638,-37.47332 51.7842,-86.2514 51.7842,-139.5957 0,-53.33333 -19.51782,-102.11799 -51.7842,-139.600088 l -15.19076,15.190761 c 28.41987,33.569757 45.56351,76.980707 45.56351,124.409327"
                 id="Fill-6-6" />
              <path
                 inkscape:connector-curvature="0"
                 d="m 214.75056,406.92048 c -47.42642,0 -90.83737,-17.13486 -124.404941,-45.55692 L 75.15047,376.54773 c 37.48868,32.27516 86.26237,51.78858 139.60009,51.78858 53.33991,0 102.11798,-19.51342 139.60228,-51.78858 l -15.18857,-15.18417 c -33.57415,28.42206 -76.9851,45.55692 -124.41371,45.55692"
                 id="Fill-8-0" />
              <path
                 inkscape:connector-curvature="0"
                 d="m 308.52251,83.949714 -10.7518,18.618176 c 34.07005,25.36328 56.13319,65.94365 56.13319,111.6827 0,45.73246 -22.06314,86.31723 -56.13319,111.67612 l 10.7518,18.62476 c 40.44653,-29.16372 66.78845,-76.64061 66.78845,-130.30088 0,-53.66247 -26.34192,-101.14813 -66.78845,-130.300876"
                 id="Fill-10" />
              <path
                 inkscape:connector-curvature="0"
                 d="m 76.54601,230.30413 -21.556267,0 c 8.057269,81.13222 76.508947,144.50422 159.760817,144.50422 23.5267,0 45.84437,-5.09942 65.97438,-14.18579 l -10.75839,-18.63353 c -16.93519,7.33317 -35.59286,11.41665 -55.21599,11.41665 -71.4183,0 -130.237245,-53.81386 -138.20455,-123.10155 z"
                 id="Fill-12" />
              <path
                 inkscape:connector-curvature="0"
                 d="m 214.75056,75.091326 c 19.62313,0 38.2808,4.081297 55.21599,11.410076 l 10.75839,-18.624755 c -20.13001,-9.090759 -42.44768,-14.194573 -65.97438,-14.194573 -83.25187,0 -151.703548,63.372006 -159.760817,144.506416 l 21.556267,0 C 84.513315,128.90739 143.33226,75.091326 214.75056,75.091326"
                 id="Fill-14-5" />
              <path
                 inkscape:connector-curvature="0"
                 d="m 129.67001,223.95398 c -4.73957,-41.53706 21.0867,-79.49312 59.59351,-91.44956 l -2.45536,-21.59577 c -50.2965,13.5385 -84.48942,62.15859 -78.40697,115.47436 6.08025,53.30919 50.34038,92.98115 102.39007,94.83748 l -2.45975,-21.58698 c -40.21613,-2.97321 -73.92413,-34.14685 -78.6615,-75.67953"
                 id="Fill-16-0" />
              <path
                 inkscape:connector-curvature="0"
                 d="m 221.17267,128.86109 c 40.22052,2.97759 73.91975,34.14685 78.66151,75.6883 4.73737,41.5261 -21.08231,79.48435 -59.5979,91.44518 l 2.46414,21.5826 c 50.28771,-13.52533 84.48283,-62.14981 78.40477,-115.459 -6.08025,-53.31578 -50.34257,-92.98773 -102.39446,-94.84845 l 2.46194,21.59137 z"
                 id="Fill-18-3" />
            </g>
          </g>
        </g>
      </g>
      <g
         transform="translate(85.153079,730.0167)"
         id="Welcome"
         style="fill:#666666;fill-opacity:1;fill-rule:evenodd;stroke:none;stroke-width:1">
        <g
           id="Desktop-HD-Home"
           transform="translate(-603,-100)"
           style="fill:#666666;fill-opacity:1">
          <g
             id="l"
             transform="translate(173,100)"
             style="fill:#666666;fill-opacity:1">
            <g
               id="Logotype"
               transform="translate(430,0)"
               style="fill:#666666;fill-opacity:1">
              <mask
                 id="mask-2"
                 fill="white">
                <use
                   height="100%"
                   width="100%"
                   y="0"
                   x="0"
                   xlink:href="#path-1"
                   id="use4271" />
              </mask>
              <g
                 id="Clip-2"
                 style="fill:#666666;fill-opacity:1" />
              <path
                 inkscape:connector-curvature="0"
                 d="m 10.484642,31.252265 c 7.922175,0 13.418957,-6.05077 13.418957,-13.868862 0,-7.5395076 -6.057938,-13.1244922 -13.792137,-13.1244922 l -5.637626,0 0,26.9933542 6.010806,0 z M 1.1090047e-4,0.06851077 l 11.65009509953,0 c 8.665763,0 17.008251,7.40215383 17.008251,17.54750723 0,10.099385 -8.06191,17.824985 -18.127237,17.824985 l -10.53110909953,0 0,-35.37249223 z"
                 id="Fill-1"
                 style="fill:#666666;fill-opacity:1" />
              <path
                 inkscape:connector-curvature="0"
                 d="m 137.97499,11.193729 4.47373,0 -8.94579,24.247385 -3.44734,0 -6.52372,-18.942092 -0.0931,0 -6.52483,18.942092 -3.4479,0 -8.94634,-24.247385 4.47206,0 6.10341,17.545846 0.0959,0 6.05849,-17.545846 4.47206,0 6.05738,17.545846 0.0932,0 6.10285,-17.545846 z"
                 id="Fill-4"
                 style="fill:#666666;fill-opacity:1" />
              <path
                 inkscape:connector-curvature="0"
                 d="m 162.6666,21.338751 c 0,-3.630462 -1.49051,-6.795692 -5.63929,-6.795692 -3.91313,0 -6.28917,2.653476 -6.28917,7.261476 l 0,13.637354 -4.1937,0 0,-35.37249208 4.1937,0 0,13.96412308 0.0921,0 c 1.25927,-2.189354 3.96136,-3.398954 6.66456,-3.398954 4.70496,0 9.3661,2.559323 9.3661,9.1224 l 0,15.684923 -4.19425,0 0,-14.103138 z"
                 id="Fill-6"
                 style="fill:#666666;fill-opacity:1" />
              <mask
                 id="mask-4"
                 fill="white">
                <use
                   height="100%"
                   width="100%"
                   y="0"
                   x="0"
                   xlink:href="#path-3"
                   id="use4278" />
              </mask>
              <g
                 id="Clip-9"
                 style="fill:#666666;fill-opacity:1" />
              <path
                 inkscape:connector-curvature="0"
                 d="m 191.61278,21.479372 c -0.42086,-4.003754 -3.68189,-6.935261 -8.01422,-6.935261 -5.12693,0 -7.59613,3.630461 -8.01533,6.935261 l 16.02955,0 z m 3.68135,9.261416 c -3.26103,3.630461 -6.71226,5.259323 -10.95032,5.259323 -8.62085,0 -13.23541,-6.236862 -13.23541,-12.706893 0,-6.886523 4.9395,-12.658707 12.53563,-12.658707 7.50242,0 12.72029,5.724554 12.72029,14.288677 l -20.78109,0 c 0.6532,4.141107 4.00628,7.167877 8.71511,7.167877 2.98156,0 5.63708,-1.395693 7.78023,-3.9096 l 3.21556,2.559323 z"
                 id="Fill-8"
                 style="fill:#666666;fill-opacity:1" />
              <mask
                 id="mask-6"
                 fill="white">
                <use
                   height="100%"
                   width="100%"
                   y="0"
                   x="0"
                   xlink:href="#path-5"
                   id="use4283" />
              </mask>
              <g
                 id="Clip-12"
                 style="fill:#666666;fill-opacity:1" />
              <path
                 inkscape:connector-curvature="0"
                 d="m 220.96298,21.479372 c -0.41809,-4.003754 -3.68134,-6.935261 -8.01366,-6.935261 -5.12472,0 -7.59613,3.630461 -8.01312,6.935261 l 16.02678,0 z m 3.6819,9.261416 c -3.26103,3.630461 -6.71003,5.259323 -10.9481,5.259323 -8.62195,0 -13.23541,-6.236862 -13.23541,-12.706893 0,-6.886523 4.93951,-12.658707 12.53563,-12.658707 7.5002,0 12.72029,5.724554 12.72029,14.288677 l -20.78109,0 c 0.65099,4.141107 4.00517,7.167877 8.7129,7.167877 2.98156,0 5.63707,-1.395693 7.78244,-3.9096 l 3.21334,2.559323 z"
                 id="Fill-11"
                 style="fill:#666666;fill-opacity:1" />
              <path
                 inkscape:connector-curvature="0"
                 d="m 35.661988,23.039225 c 0,4.696615 2.760313,9.138461 7.87227,9.138461 5.266109,0 8.026977,-4.238585 8.026977,-9.088061 0,-4.799631 -3.017048,-8.681539 -8.076327,-8.681539 -4.755967,0 -7.82292,4.138339 -7.82292,8.631139 l 0,0 z m 19.785199,12.40283 -4.0889,0 0,-3.465969 -0.103692,0 c -2.097683,2.654585 -4.907346,3.979939 -8.282602,3.979939 -7.055488,0 -11.502043,-5.973231 -11.502043,-12.611077 0,-6.841662 4.345081,-12.714646 11.553612,-12.714646 3.274336,0 6.235933,1.53083 8.231033,4.084615 l 0.103692,0 0,-3.521908 4.0889,0 0,24.249046 z"
                 id="Fill-14"
                 style="fill:#666666;fill-opacity:1" />
              <path
                 inkscape:connector-curvature="0"
                 d="m 80.26749,23.039225 c 0,4.696615 2.760312,9.138461 7.87227,9.138461 5.266109,0 8.026421,-4.238585 8.026421,-9.088061 0,-4.799631 -3.015938,-8.681539 -8.076326,-8.681539 -4.755413,0 -7.822365,4.138339 -7.822365,8.631139 l 0,0 z m 19.78464,12.40283 -4.088342,0 0,-3.465969 -0.104246,0 c -2.097683,2.654585 -4.906792,3.979939 -8.282048,3.979939 -7.055488,0 -11.502597,-5.973231 -11.502597,-12.611077 0,-6.841662 4.345635,-12.714646 11.553611,-12.714646 3.274337,0 6.236489,1.53083 8.231034,4.084615 l 0.104246,0 0,-3.521908 4.088342,0 0,24.249046 z"
                 id="Fill-16"
                 style="fill:#666666;fill-opacity:1" />
              <path
                 inkscape:connector-curvature="0"
                 d="m 68.399254,35.44128 -4.065612,0 0,-20.490646 -4.270777,0 0,-3.756739 4.270777,0 0,-11.12455346 4.065612,0 0,11.12455346 4.270777,0 0,3.756739 -4.270777,0 0,20.490646 z"
                 id="Fill-18"
                 style="fill:#666666;fill-opacity:1" />
              <mask
                 id="mask-8"
                 fill="white">
                <use
                   height="100%"
                   width="100%"
                   y="0"
                   x="0"
                   xlink:href="#path-7"
                   id="use4291" />
              </mask>
              <g
                 id="Clip-21"
                 style="fill:#666666;fill-opacity:1" />
              <path
                 inkscape:connector-curvature="0"
                 d="m 233.77044,35.441169 -4.06562,0 0,-35.37249208 4.06562,0 0,35.37249208 z"
                 id="Fill-20"
                 style="fill:#666666;fill-opacity:1" />
            </g>
          </g>
        </g>
      </g>
      <g
         id="text3401"
         style="font-style:normal;font-weight:normal;font-size:52.5524025px;line-height:125%;font-family:sans-serif;letter-spacing:-0.67000002px;word-spacing:0px;fill:#666666;fill-opacity:1;stroke:none;stroke-width:1px;stroke-linecap:butt;stroke-linejoin:miter;stroke-opacity:1">
        <path
           id="path4190"
           style="font-style:normal;font-variant:normal;font-weight:normal;font-stretch:normal;font-family:'Sofia Pro';-inkscape-font-specification:'Sofia Pro';letter-spacing:0px;word-spacing:0px;fill:#666666;fill-opacity:1"
           d="m 384.74945,757.27398 c -2.62762,3.10059 -5.99098,4.62461 -10.03751,4.62461 -3.78378,0 -6.98947,-1.31381 -9.56454,-3.99398 -2.57507,-2.68017 -3.88888,-5.99098 -3.88888,-9.8273 0,-3.83633 1.31381,-7.14713 3.88888,-9.8273 2.57507,-2.68017 5.78076,-4.04654 9.56454,-4.04654 3.88888,0 7.19968,1.47147 9.9324,4.46696 l 3.67867,-3.04804 c -3.3108,-3.83633 -8.14562,-6.14863 -13.61107,-6.14863 -5.09759,0 -9.45943,1.83933 -13.033,5.46545 -3.52101,3.62611 -5.30779,7.98796 -5.30779,13.1381 0,5.15013 1.78678,9.51198 5.30779,13.1381 3.57357,3.62612 7.93541,5.4129 13.033,5.4129 5.518,0 10.40537,-2.31231 13.71617,-6.25374 l -3.67866,-3.10059 z"
           inkscape:connector-curvature="0" />
        <path
           id="path4192"
           style="font-style:normal;font-variant:normal;font-weight:normal;font-stretch:normal;font-family:'Sofia Pro';-inkscape-font-specification:'Sofia Pro';letter-spacing:0px;word-spacing:0px;fill:#666666;fill-opacity:1"
           d="m 392.29564,748.07731 c 0,5.15013 1.78679,9.51198 5.3078,13.1381 3.52101,3.62612 7.88286,5.4129 12.98044,5.4129 5.15014,0 9.51199,-1.78678 13.033,-5.4129 3.57356,-3.62612 5.36034,-7.98797 5.36034,-13.1381 0,-5.20269 -1.78678,-9.56454 -5.36034,-13.19065 -3.52101,-3.62612 -7.88286,-5.4129 -13.033,-5.4129 -5.09758,0 -9.45943,1.78678 -12.98044,5.4129 -3.52101,3.62611 -5.3078,7.98796 -5.3078,13.19065 z m 18.28824,-13.87384 c 3.78377,0 6.98947,1.36637 9.56454,4.04654 2.57507,2.68017 3.88888,5.99097 3.88888,9.8273 0,3.83632 -1.31381,7.14713 -3.88888,9.8273 -2.57507,2.68017 -5.78077,3.99398 -9.56454,3.99398 -3.78377,0 -6.98947,-1.31381 -9.56454,-3.99398 -2.57506,-2.68017 -3.83632,-5.99098 -3.83632,-9.8273 0,-3.83633 1.31381,-7.14713 3.88888,-9.8273 2.57506,-2.68017 5.78076,-4.04654 9.51198,-4.04654 z"
           inkscape:connector-curvature="0" />
        <path
           id="path4194"
           style="font-style:normal;font-variant:normal;font-weight:normal;font-stretch:normal;font-family:'Sofia Pro';-inkscape-font-specification:'Sofia Pro';letter-spacing:0px;word-spacing:0px;fill:#666666;fill-opacity:1"
           d="m 462.50155,729.89418 -4.88737,0 0,27.06449 -16.3438,-27.06449 -4.83482,0 0,36.2086 4.88738,0 0,-27.27469 16.50145,27.27469 4.67716,0 0,-36.2086 z"
           inkscape:connector-curvature="0" />
        <path
           id="path4196"
           style="font-style:normal;font-variant:normal;font-weight:normal;font-stretch:normal;font-family:'Sofia Pro';-inkscape-font-specification:'Sofia Pro';letter-spacing:0px;word-spacing:0px;fill:#666666;fill-opacity:1"
           d="m 468.8916,729.89418 10.98345,36.2086 4.67716,0 10.87835,-36.2086 -5.04503,0 -8.19818,27.95788 -8.19817,-27.95788 -5.09758,0 z"
           inkscape:connector-curvature="0" />
        <path
           id="path4198"
           style="font-style:normal;font-variant:normal;font-weight:normal;font-stretch:normal;font-family:'Sofia Pro';-inkscape-font-specification:'Sofia Pro';letter-spacing:0px;word-spacing:0px;fill:#666666;fill-opacity:1"
           d="m 501.92078,766.10278 21.9669,0 0,-4.57206 -17.07953,0 0,-10.9309 14.45191,0 0,-4.57205 -14.45191,0 0,-11.56153 16.55401,0 0,-4.57206 -21.44138,0 0,36.2086 z"
           inkscape:connector-curvature="0" />
        <path
           id="path4200"
           style="font-style:normal;font-variant:normal;font-weight:normal;font-stretch:normal;font-family:'Sofia Pro';-inkscape-font-specification:'Sofia Pro';letter-spacing:0px;word-spacing:0px;fill:#666666;fill-opacity:1"
           d="m 546.7718,752.38661 c 3.20569,-0.26277 5.57055,-1.47147 7.09457,-3.57357 1.57657,-2.10209 2.36486,-4.62461 2.36486,-7.56754 0,-3.15315 -0.89339,-5.83332 -2.68017,-8.04052 -1.78679,-2.2072 -4.46696,-3.3108 -8.04052,-3.3108 l -13.92639,0 0,36.2086 4.93993,0 0,-13.55852 4.62461,0 9.35433,13.55852 5.93842,0 -9.66964,-13.71617 z m -1.41892,-17.92037 c 3.94143,0 5.83332,3.04804 5.83332,6.77926 0,3.78377 -1.89189,6.7267 -6.04353,6.7267 l -8.61859,0 0,-13.50596 8.8288,0 z"
           inkscape:connector-curvature="0" />
        <path
           id="path4202"
           style="font-style:normal;font-variant:normal;font-weight:normal;font-stretch:normal;font-family:'Sofia Pro';-inkscape-font-specification:'Sofia Pro';letter-spacing:0px;word-spacing:0px;fill:#666666;fill-opacity:1"
           d="m 560.34509,734.51879 10.98346,0 0,31.58399 4.93992,0 0,-31.58399 10.98345,0 0,-4.62461 -26.90683,0 0,4.62461 z"
           inkscape:connector-curvature="0" />
        <path
           id="path4204"
           style="font-style:normal;font-variant:normal;font-weight:normal;font-stretch:normal;font-family:'Sofia Pro';-inkscape-font-specification:'Sofia Pro';letter-spacing:0px;word-spacing:0px;fill:#666666;fill-opacity:1"
           d="m 605.69125,766.10278 4.88738,0 0,-15.50296 12.87534,0 0,-4.57205 -12.87534,0 0,-11.56153 16.23869,0 0,-4.57206 -21.12607,0 0,36.2086 z"
           inkscape:connector-curvature="0" />
        <path
           id="path4206"
           style="font-style:normal;font-variant:normal;font-weight:normal;font-stretch:normal;font-family:'Sofia Pro';-inkscape-font-specification:'Sofia Pro';letter-spacing:0px;word-spacing:0px;fill:#666666;fill-opacity:1"
           d="m 630.52636,748.07731 c 0,5.15013 1.78678,9.51198 5.30779,13.1381 3.52102,3.62612 7.88286,5.4129 12.98045,5.4129 5.15013,0 9.51198,-1.78678 13.03299,-5.4129 3.57357,-3.62612 5.36035,-7.98797 5.36035,-13.1381 0,-5.20269 -1.78678,-9.56454 -5.36035,-13.19065 -3.52101,-3.62612 -7.88286,-5.4129 -13.03299,-5.4129 -5.09759,0 -9.45943,1.78678 -12.98045,5.4129 -3.52101,3.62611 -5.30779,7.98796 -5.30779,13.19065 z m 18.28824,-13.87384 c 3.78377,0 6.98947,1.36637 9.56453,4.04654 2.57507,2.68017 3.88888,5.99097 3.88888,9.8273 0,3.83632 -1.31381,7.14713 -3.88888,9.8273 -2.57506,2.68017 -5.78076,3.99398 -9.56453,3.99398 -3.78378,0 -6.98947,-1.31381 -9.56454,-3.99398 -2.57507,-2.68017 -3.83632,-5.99098 -3.83632,-9.8273 0,-3.83633 1.31381,-7.14713 3.88887,-9.8273 2.57507,-2.68017 5.78077,-4.04654 9.51199,-4.04654 z"
           inkscape:connector-curvature="0" />
        <path
           id="path4208"
           style="font-style:normal;font-variant:normal;font-weight:normal;font-stretch:normal;font-family:'Sofia Pro';-inkscape-font-specification:'Sofia Pro';letter-spacing:0px;word-spacing:0px;fill:#666666;fill-opacity:1"
           d="m 689.85392,752.38661 c 3.2057,-0.26277 5.57055,-1.47147 7.09457,-3.57357 1.57658,-2.10209 2.36486,-4.62461 2.36486,-7.56754 0,-3.15315 -0.89339,-5.83332 -2.68017,-8.04052 -1.78678,-2.2072 -4.46696,-3.3108 -8.04052,-3.3108 l -13.92639,0 0,36.2086 4.93993,0 0,-13.55852 4.62461,0 9.35433,13.55852 5.93842,0 -9.66964,-13.71617 z M 688.435,734.46624 c 3.94143,0 5.83332,3.04804 5.83332,6.77926 0,3.78377 -1.89189,6.7267 -6.04353,6.7267 l -8.61859,0 0,-13.50596 8.8288,0 z"
           inkscape:connector-curvature="0" />
        <path
           id="path4210"
           style="font-style:normal;font-variant:normal;font-weight:normal;font-stretch:normal;font-family:'Sofia Pro';-inkscape-font-specification:'Sofia Pro';letter-spacing:0px;word-spacing:0px;fill:#666666;fill-opacity:1"
           d="m 714.03541,729.89418 -4.46695,0 -4.41441,36.2086 4.83483,0 3.3108,-27.22214 11.40387,23.22816 4.30929,0 11.29877,-23.22816 3.3108,27.22214 4.83482,0 -4.4144,-36.2086 -4.46695,0 -12.77024,26.59151 -12.77023,-26.59151 z"
           inkscape:connector-curvature="0" />
        <path
           id="path4212"
           style="font-style:normal;font-variant:normal;font-weight:normal;font-stretch:normal;font-family:'Sofia Pro';-inkscape-font-specification:'Sofia Pro';letter-spacing:0px;word-spacing:0px;fill:#666666;fill-opacity:1"
           d="m 768.30069,736.41068 5.99097,16.08103 -11.98194,0 5.99097,-16.08103 z m 11.19366,29.6921 5.15014,0 -13.71618,-36.2086 -5.25524,0 -13.76873,36.2086 5.20269,0 3.52101,-9.19667 15.3453,0 3.52101,9.19667 z"
           inkscape:connector-curvature="0" />
        <path
           id="path4214"
           style="font-style:normal;font-variant:normal;font-weight:normal;font-stretch:normal;font-family:'Sofia Pro';-inkscape-font-specification:'Sofia Pro';letter-spacing:0px;word-spacing:0px;fill:#666666;fill-opacity:1"
           d="m 784.00073,734.51879 10.98346,0 0,31.58399 4.93992,0 0,-31.58399 10.98345,0 0,-4.62461 -26.90683,0 0,4.62461 z"
           inkscape:connector-curvature="0" />
        <path
           id="path4216"
           style="font-style:normal;font-variant:normal;font-weight:normal;font-stretch:normal;font-family:'Sofia Pro';-inkscape-font-specification:'Sofia Pro';letter-spacing:0px;word-spacing:0px;fill:#666666;fill-opacity:1"
           d="m 815.02801,755.64486 c 0,2.94293 1.20871,5.518 3.62612,7.7252 2.41741,2.15465 5.4129,3.25825 9.03901,3.25825 3.41591,0 6.20119,-0.89339 8.35583,-2.68018 2.15465,-1.78678 3.41591,-4.04653 3.73122,-6.77926 0.68319,-5.67565 -2.78527,-9.61708 -9.66964,-11.35131 l -4.72971,-1.15616 c -3.41591,-0.84084 -5.15014,-2.52251 -5.15014,-5.04503 0,-1.62912 0.68318,-2.94293 1.99699,-3.94143 1.36636,-0.99849 2.94294,-1.52402 4.78227,-1.52402 3.99398,0 6.83181,2.36486 6.83181,5.93842 l 4.88738,0 c 0,-3.20569 -1.1036,-5.72821 -3.3108,-7.67265 -2.20721,-1.94444 -4.99248,-2.94293 -8.35584,-2.94293 -3.20569,0 -5.93842,0.94594 -8.25072,2.89038 -2.31231,1.89189 -3.46846,4.3093 -3.46846,7.30478 0,4.78227 2.94293,7.93542 8.8288,9.45944 l 4.67716,1.15615 c 3.78378,0.84084 6.4114,2.89038 6.14864,6.46395 -0.47298,2.99548 -2.94294,5.30779 -7.30479,5.30779 -2.2072,0 -4.04653,-0.63063 -5.518,-1.94444 -1.47147,-1.31381 -2.2072,-2.83783 -2.25975,-4.46695 l -4.88738,0 z"
           inkscape:connector-curvature="0" />
      </g>
      <g
         id="text4974"
         style="font-style:normal;font-weight:normal;font-size:21.30207062px;line-height:125%;font-family:sans-serif;letter-spacing:0px;word-spacing:0px;fill:#cb9f2c;fill-opacity:1;stroke:none;stroke-width:1px;stroke-linecap:butt;stroke-linejoin:miter;stroke-opacity:1">
        <path
           id="path4219"
           style="font-style:normal;font-variant:normal;font-weight:bold;font-stretch:normal;font-family:'Sofia Pro';-inkscape-font-specification:'Sofia Pro Bold';fill:#cb9f2c;fill-opacity:1"
           d="m 279.32644,787.56555 0,-2.74797 -5.49594,0 0,-11.92915 -3.1314,0 0,14.67712 8.62734,0 z"
           inkscape:connector-curvature="0" />
        <path
           id="path4221"
           style="font-style:normal;font-variant:normal;font-weight:bold;font-stretch:normal;font-family:'Sofia Pro';-inkscape-font-specification:'Sofia Pro Bold';fill:#cb9f2c;fill-opacity:1"
           d="m 286.84108,776.27545 1.55505,5.1125 -3.0462,0 1.49115,-5.1125 z m 3.85567,11.2901 3.28052,0 -5.43203,-14.67712 -3.38703,0 -5.45333,14.67712 3.32313,0 1.29942,-3.47224 5.0699,0 1.29942,3.47224 z"
           inkscape:connector-curvature="0" />
        <path
           id="path4223"
           style="font-style:normal;font-variant:normal;font-weight:bold;font-stretch:normal;font-family:'Sofia Pro';-inkscape-font-specification:'Sofia Pro Bold';fill:#cb9f2c;fill-opacity:1"
           d="m 305.80425,776.97842 c 0,-2.49234 -1.70417,-4.08999 -4.34562,-4.08999 l -5.87938,0 0,14.67712 6.30542,0 c 1.42724,0 2.55625,-0.42604 3.40833,-1.29942 0.85208,-0.87339 1.27812,-1.93849 1.27812,-3.19532 0,-0.68166 -0.23432,-1.34203 -0.72427,-2.00239 -0.46864,-0.66036 -1.15031,-1.10771 -2.045,-1.34203 1.38464,-0.53255 2.0024,-1.64026 2.0024,-2.74797 z m -7.09359,-1.34203 2.42843,0 c 0.91599,0 1.38464,0.59646 1.38464,1.53375 0,0.87339 -0.57516,1.51245 -1.36333,1.51245 l -2.44974,0 0,-3.0462 z m 2.93968,5.62375 c 1.0225,0 1.64026,0.83078 1.64026,1.74677 0,0.95859 -0.57515,1.81067 -1.57635,1.81067 l -3.00359,0 0,-3.55744 2.93968,0 z"
           inkscape:connector-curvature="0" />
        <path
           id="path4225"
           style="font-style:normal;font-variant:normal;font-weight:bold;font-stretch:normal;font-family:'Sofia Pro';-inkscape-font-specification:'Sofia Pro Bold';fill:#cb9f2c;fill-opacity:1"
           d="m 308.3129,783.26253 c 0,1.34203 0.48995,2.42844 1.46984,3.28052 0.9799,0.83078 2.25802,1.25682 3.85568,1.25682 1.81067,0 3.42963,-0.55385 4.47343,-1.89588 0.53255,-0.68167 0.78818,-1.49114 0.80948,-2.40713 0.0639,-2.15151 -1.27813,-3.64266 -4.02609,-4.43083 l -1.74677,-0.55386 c -1.0438,-0.29823 -1.57636,-0.78817 -1.57636,-1.49114 0,-0.85209 0.78818,-1.46985 1.89589,-1.46985 1.21422,0 1.89588,0.66037 1.89588,1.66157 l 3.11011,0 c 0,-1.38464 -0.46865,-2.47104 -1.40594,-3.28052 -0.91599,-0.80948 -2.10891,-1.21422 -3.55745,-1.21422 -1.42724,0 -2.64145,0.40474 -3.60005,1.23552 -0.95859,0.80948 -1.44854,1.85328 -1.44854,3.15271 0,2.02369 1.25682,3.42963 3.79177,4.21781 l 1.76807,0.48994 c 1.38464,0.40474 1.78938,0.91599 1.76807,1.66156 -0.0213,0.9373 -0.87338,1.55506 -2.1515,1.55506 -1.34204,0 -2.13021,-0.76688 -2.19412,-1.76808 l -3.1314,0 z"
           inkscape:connector-curvature="0" />
      </g>
    </g>
  </g>
</svg>
